<svg width="431" height="89" viewBox="0 0 431 89" fill="none" xmlns="http://www.w3.org/2000/svg">
<g filter="url(#filter0_d)">
<rect width="421" height="79" rx="39.5" fill="#2D3436"/>
<rect width="421" height="79" rx="39.5" fill="url(#paint0_linear)"/>
</g>
<g filter="url(#filter1_d)">
<path d="M154.047 55.6875C152.781 57.2031 150.992 58.3828 148.68 59.2266C146.367 60.0547 143.805 60.4688 140.992 60.4688C138.039 60.4688 135.445 59.8281 133.211 58.5469C130.992 57.25 129.273 55.375 128.055 52.9219C126.852 50.4688 126.234 47.5859 126.203 44.2734V41.9531C126.203 38.5469 126.773 35.6016 127.914 33.1172C129.07 30.6172 130.727 28.7109 132.883 27.3984C135.055 26.0703 137.594 25.4062 140.5 25.4062C144.547 25.4062 147.711 26.375 149.992 28.3125C152.273 30.2344 153.625 33.0391 154.047 36.7266H147.203C146.891 34.7734 146.195 33.3438 145.117 32.4375C144.055 31.5312 142.586 31.0781 140.711 31.0781C138.32 31.0781 136.5 31.9766 135.25 33.7734C134 35.5703 133.367 38.2422 133.352 41.7891V43.9688C133.352 47.5469 134.031 50.25 135.391 52.0781C136.75 53.9062 138.742 54.8203 141.367 54.8203C144.008 54.8203 145.891 54.2578 147.016 53.1328V47.25H140.617V42.0703H154.047V55.6875ZM167.242 60H160.211V25.875H167.242V60ZM198.766 31.5703H188.312V60H181.281V31.5703H170.969V25.875H198.766V31.5703ZM230.57 60H223.539V45.375H209.828V60H202.797V25.875H209.828V39.7031H223.539V25.875H230.57V60ZM262.562 25.875V48.3516C262.562 52.0859 261.391 55.0391 259.047 57.2109C256.719 59.3828 253.531 60.4688 249.484 60.4688C245.5 60.4688 242.336 59.4141 239.992 57.3047C237.648 55.1953 236.453 52.2969 236.406 48.6094V25.875H243.438V48.3984C243.438 50.6328 243.969 52.2656 245.031 53.2969C246.109 54.3125 247.594 54.8203 249.484 54.8203C253.438 54.8203 255.445 52.7422 255.508 48.5859V25.875H262.562ZM268.328 60V25.875H280.281C284.422 25.875 287.562 26.6719 289.703 28.2656C291.844 29.8438 292.914 32.1641 292.914 35.2266C292.914 36.8984 292.484 38.375 291.625 39.6562C290.766 40.9219 289.57 41.8516 288.039 42.4453C289.789 42.8828 291.164 43.7656 292.164 45.0938C293.18 46.4219 293.688 48.0469 293.688 49.9688C293.688 53.25 292.641 55.7344 290.547 57.4219C288.453 59.1094 285.469 59.9688 281.594 60H268.328ZM275.359 45.1406V54.3516H281.383C283.039 54.3516 284.328 53.9609 285.25 53.1797C286.188 52.3828 286.656 51.2891 286.656 49.8984C286.656 46.7734 285.039 45.1875 281.805 45.1406H275.359ZM275.359 40.1719H280.562C284.109 40.1094 285.883 38.6953 285.883 35.9297C285.883 34.3828 285.43 33.2734 284.523 32.6016C283.633 31.9141 282.219 31.5703 280.281 31.5703H275.359V40.1719Z" fill="white"/>
</g>
<g filter="url(#filter2_d)">
<path d="M36.3927 54.8703C36.3927 55.0854 36.1516 55.2574 35.8476 55.2574C35.5016 55.2897 35.2605 55.1176 35.2605 54.8703C35.2605 54.6553 35.5016 54.4832 35.8056 54.4832C36.1202 54.451 36.3927 54.623 36.3927 54.8703ZM33.1323 54.3865C33.0589 54.6015 33.2685 54.8488 33.5831 54.9133C33.8556 55.0209 34.1702 54.9133 34.2331 54.6983C34.296 54.4832 34.0968 54.2359 33.7823 54.1391C33.5097 54.0639 33.2056 54.1714 33.1323 54.3865ZM37.7661 54.2037C37.4621 54.2789 37.2524 54.4832 37.2839 54.7305C37.3153 54.9456 37.5879 55.0854 37.9024 55.0101C38.2065 54.9348 38.4161 54.7305 38.3847 54.5155C38.3532 54.3112 38.0702 54.1714 37.7661 54.2037ZM44.6645 13C30.1234 13 19 24.3224 19 39.2362C19 51.1607 26.3177 61.3648 36.7702 64.9562C38.1121 65.2035 38.5839 64.354 38.5839 63.6551C38.5839 62.9885 38.5524 59.3111 38.5524 57.0531C38.5524 57.0531 31.2137 58.666 29.6726 53.8488C29.6726 53.8488 28.4774 50.7198 26.7581 49.9134C26.7581 49.9134 24.3573 48.2253 26.9258 48.2575C26.9258 48.2575 29.5363 48.4726 30.9726 51.0317C33.2685 55.1821 37.1161 53.9886 38.6153 53.2789C38.8565 51.5585 39.5379 50.365 40.2927 49.6553C34.4323 48.9887 28.5194 48.1177 28.5194 37.7738C28.5194 34.8169 29.3161 33.333 30.9935 31.4406C30.721 30.7417 29.8298 27.86 31.2661 24.1396C33.4573 23.4407 38.5 27.0428 38.5 27.0428C40.5968 26.4407 42.8508 26.1288 45.0839 26.1288C47.3169 26.1288 49.571 26.4407 51.6677 27.0428C51.6677 27.0428 56.7105 23.4299 58.9016 24.1396C60.3379 27.8707 59.4468 30.7417 59.1742 31.4406C60.8516 33.3438 61.879 34.8276 61.879 37.7738C61.879 48.15 55.704 48.9779 49.8435 49.6553C50.8081 50.5048 51.6258 52.1177 51.6258 54.6445C51.6258 58.2681 51.5944 62.7519 51.5944 63.6336C51.5944 64.3325 52.0766 65.182 53.4081 64.9347C63.8919 61.3648 71 51.1607 71 39.2362C71 24.3224 59.2056 13 44.6645 13ZM29.1903 50.0854C29.054 50.193 29.0855 50.4403 29.2637 50.6446C29.4315 50.8166 29.6726 50.8919 29.8089 50.7521C29.9452 50.6446 29.9137 50.3973 29.7355 50.193C29.5677 50.0209 29.3266 49.9457 29.1903 50.0854ZM28.0581 49.2145C27.9847 49.3543 28.0895 49.5263 28.2992 49.6338C28.4669 49.7414 28.6766 49.7091 28.75 49.5586C28.8234 49.4188 28.7185 49.2468 28.5089 49.1392C28.2992 49.0747 28.1315 49.107 28.0581 49.2145ZM31.4548 53.0424C31.2871 53.1822 31.35 53.5048 31.5911 53.709C31.8323 53.9564 32.1363 53.9886 32.2726 53.8166C32.4089 53.6768 32.346 53.3542 32.1363 53.1499C31.9056 52.9026 31.5911 52.8703 31.4548 53.0424ZM30.2597 51.4618C30.0919 51.5693 30.0919 51.8489 30.2597 52.0962C30.4274 52.3435 30.7105 52.451 30.8468 52.3435C31.0145 52.2037 31.0145 51.9241 30.8468 51.6768C30.7 51.4295 30.4274 51.322 30.2597 51.4618Z" fill="white"/>
</g>
<defs>
<filter id="filter0_d" x="0" y="0" width="431" height="89" filterUnits="userSpaceOnUse" color-interpolation-filters="sRGB">
<feFlood flood-opacity="0" result="BackgroundImageFix"/>
<feColorMatrix in="SourceAlpha" type="matrix" values="0 0 0 0 0 0 0 0 0 0 0 0 0 0 0 0 0 0 127 0"/>
<feOffset dx="5" dy="5"/>
<feGaussianBlur stdDeviation="2.5"/>
<feColorMatrix type="matrix" values="0 0 0 0 0 0 0 0 0 0 0 0 0 0 0 0 0 0 0.25 0"/>
<feBlend mode="normal" in2="BackgroundImageFix" result="effect1_dropShadow"/>
<feBlend mode="normal" in="SourceGraphic" in2="effect1_dropShadow" result="shape"/>
</filter>
<filter id="filter1_d" x="126.203" y="25.4062" width="177.484" height="45.0625" filterUnits="userSpaceOnUse" color-interpolation-filters="sRGB">
<feFlood flood-opacity="0" result="BackgroundImageFix"/>
<feColorMatrix in="SourceAlpha" type="matrix" values="0 0 0 0 0 0 0 0 0 0 0 0 0 0 0 0 0 0 127 0"/>
<feOffset dx="5" dy="5"/>
<feGaussianBlur stdDeviation="2.5"/>
<feColorMatrix type="matrix" values="0 0 0 0 0 0 0 0 0 0 0 0 0 0 0 0 0 0 0.25 0"/>
<feBlend mode="normal" in2="BackgroundImageFix" result="effect1_dropShadow"/>
<feBlend mode="normal" in="SourceGraphic" in2="effect1_dropShadow" result="shape"/>
</filter>
<filter id="filter2_d" x="19" y="13" width="62" height="62" filterUnits="userSpaceOnUse" color-interpolation-filters="sRGB">
<feFlood flood-opacity="0" result="BackgroundImageFix"/>
<feColorMatrix in="SourceAlpha" type="matrix" values="0 0 0 0 0 0 0 0 0 0 0 0 0 0 0 0 0 0 127 0"/>
<feOffset dx="5" dy="5"/>
<feGaussianBlur stdDeviation="2.5"/>
<feColorMatrix type="matrix" values="0 0 0 0 0 0 0 0 0 0 0 0 0 0 0 0 0 0 0.25 0"/>
<feBlend mode="normal" in2="BackgroundImageFix" result="effect1_dropShadow"/>
<feBlend mode="normal" in="SourceGraphic" in2="effect1_dropShadow" result="shape"/>
</filter>
<linearGradient id="paint0_linear" x1="2.9731e-06" y1="39" x2="421" y2="39" gradientUnits="userSpaceOnUse">
<stop/>
<stop offset="0.466797" stop-color="#2D3436"/>
</linearGradient>
</defs>
</svg>
