<svg width="431" height="89" viewBox="0 0 431 89" fill="none" xmlns="http://www.w3.org/2000/svg">
<g filter="url(#filter0_d)">
<rect width="421" height="79" rx="39.5" fill="#2D3436"/>
<rect width="421" height="79" rx="39.5" fill="url(#paint0_linear)"/>
</g>
<g filter="url(#filter1_d)">
<path d="M99.5234 60H92.4922V25.875H99.5234V60ZM133.812 60H126.781L113.094 37.5469V60H106.062V25.875H113.094L126.805 48.375V25.875H133.812V60ZM157.648 51.0469C157.648 49.7188 157.18 48.7031 156.242 48C155.305 47.2812 153.617 46.5312 151.18 45.75C148.742 44.9531 146.812 44.1719 145.391 43.4062C141.516 41.3125 139.578 38.4922 139.578 34.9453C139.578 33.1016 140.094 31.4609 141.125 30.0234C142.172 28.5703 143.664 27.4375 145.602 26.625C147.555 25.8125 149.742 25.4062 152.164 25.4062C154.602 25.4062 156.773 25.8516 158.68 26.7422C160.586 27.6172 162.062 28.8594 163.109 30.4688C164.172 32.0781 164.703 33.9062 164.703 35.9531H157.672C157.672 34.3906 157.18 33.1797 156.195 32.3203C155.211 31.4453 153.828 31.0078 152.047 31.0078C150.328 31.0078 148.992 31.375 148.039 32.1094C147.086 32.8281 146.609 33.7812 146.609 34.9688C146.609 36.0781 147.164 37.0078 148.273 37.7578C149.398 38.5078 151.047 39.2109 153.219 39.8672C157.219 41.0703 160.133 42.5625 161.961 44.3438C163.789 46.125 164.703 48.3438 164.703 51C164.703 53.9531 163.586 56.2734 161.352 57.9609C159.117 59.6328 156.109 60.4688 152.328 60.4688C149.703 60.4688 147.312 59.9922 145.156 59.0391C143 58.0703 141.352 56.75 140.211 55.0781C139.086 53.4062 138.523 51.4688 138.523 49.2656H145.578C145.578 53.0312 147.828 54.9141 152.328 54.9141C154 54.9141 155.305 54.5781 156.242 53.9062C157.18 53.2188 157.648 52.2656 157.648 51.0469ZM195.172 31.5703H184.719V60H177.688V31.5703H167.375V25.875H195.172V31.5703ZM215.656 52.9688H203.328L200.984 60H193.508L206.211 25.875H212.727L225.5 60H218.023L215.656 52.9688ZM205.227 47.2734H213.758L209.469 34.5L205.227 47.2734ZM255.172 55.6875C253.906 57.2031 252.117 58.3828 249.805 59.2266C247.492 60.0547 244.93 60.4688 242.117 60.4688C239.164 60.4688 236.57 59.8281 234.336 58.5469C232.117 57.25 230.398 55.375 229.18 52.9219C227.977 50.4688 227.359 47.5859 227.328 44.2734V41.9531C227.328 38.5469 227.898 35.6016 229.039 33.1172C230.195 30.6172 231.852 28.7109 234.008 27.3984C236.18 26.0703 238.719 25.4062 241.625 25.4062C245.672 25.4062 248.836 26.375 251.117 28.3125C253.398 30.2344 254.75 33.0391 255.172 36.7266H248.328C248.016 34.7734 247.32 33.3438 246.242 32.4375C245.18 31.5312 243.711 31.0781 241.836 31.0781C239.445 31.0781 237.625 31.9766 236.375 33.7734C235.125 35.5703 234.492 38.2422 234.477 41.7891V43.9688C234.477 47.5469 235.156 50.25 236.516 52.0781C237.875 53.9062 239.867 54.8203 242.492 54.8203C245.133 54.8203 247.016 54.2578 248.141 53.1328V47.25H241.742V42.0703H255.172V55.6875ZM273.523 47.5078H267.922V60H260.891V25.875H273.57C277.602 25.875 280.711 26.7734 282.898 28.5703C285.086 30.3672 286.18 32.9062 286.18 36.1875C286.18 38.5156 285.672 40.4609 284.656 42.0234C283.656 43.5703 282.133 44.8047 280.086 45.7266L287.469 59.6719V60H279.922L273.523 47.5078ZM267.922 41.8125H273.594C275.359 41.8125 276.727 41.3672 277.695 40.4766C278.664 39.5703 279.148 38.3281 279.148 36.75C279.148 35.1406 278.688 33.875 277.766 32.9531C276.859 32.0312 275.461 31.5703 273.57 31.5703H267.922V41.8125ZM310.812 52.9688H298.484L296.141 60H288.664L301.367 25.875H307.883L320.656 60H313.18L310.812 52.9688ZM300.383 47.2734H308.914L304.625 34.5L300.383 47.2734ZM333.031 25.875L341.797 50.625L350.516 25.875H359.75V60H352.695V50.6719L353.398 34.5703L344.188 60H339.359L330.172 34.5938L330.875 50.6719V60H323.844V25.875H333.031Z" fill="white"/>
</g>
<path d="M42 16C35.48 16 34.666 16.03 32.106 16.144C29.55 16.264 27.81 16.666 26.28 17.26C24.702 17.872 23.362 18.694 22.028 20.028C20.694 21.362 19.87 22.7 19.26 24.28C18.666 25.81 18.262 27.55 18.144 30.106C18.024 32.666 18 33.48 18 40C18 46.52 18.03 47.334 18.144 49.894C18.264 52.448 18.666 54.19 19.26 55.72C19.872 57.296 20.694 58.638 22.028 59.972C23.362 61.304 24.7 62.13 26.28 62.74C27.812 63.332 29.552 63.738 32.106 63.856C34.666 63.976 35.48 64 42 64C48.52 64 49.334 63.97 51.894 63.856C54.448 63.736 56.19 63.332 57.72 62.74C59.296 62.128 60.638 61.304 61.972 59.972C63.304 58.638 64.13 57.302 64.74 55.72C65.332 54.19 65.738 52.448 65.856 49.894C65.976 47.334 66 46.52 66 40C66 33.48 65.97 32.666 65.856 30.106C65.736 27.552 65.332 25.808 64.74 24.28C64.128 22.702 63.304 21.362 61.972 20.028C60.638 18.694 59.302 17.87 57.72 17.26C56.19 16.666 54.448 16.262 51.894 16.144C49.334 16.024 48.52 16 42 16ZM42 20.32C48.406 20.32 49.17 20.352 51.7 20.462C54.04 20.572 55.31 20.96 56.154 21.292C57.278 21.726 58.074 22.246 58.918 23.084C59.756 23.924 60.276 24.722 60.71 25.846C61.038 26.69 61.43 27.96 61.536 30.3C61.65 32.832 61.676 33.592 61.676 40C61.676 46.408 61.646 47.17 61.528 49.7C61.406 52.04 61.016 53.31 60.686 54.154C60.238 55.278 59.728 56.074 58.888 56.918C58.05 57.756 57.24 58.276 56.128 58.71C55.288 59.038 53.998 59.43 51.658 59.536C49.11 59.65 48.36 59.676 41.94 59.676C35.518 59.676 34.768 59.646 32.222 59.528C29.88 59.406 28.59 59.016 27.75 58.686C26.612 58.238 25.83 57.728 24.992 56.888C24.15 56.05 23.612 55.24 23.192 54.128C22.862 53.288 22.474 51.998 22.352 49.658C22.262 47.138 22.23 46.36 22.23 39.97C22.23 33.578 22.262 32.798 22.352 30.248C22.474 27.908 22.862 26.62 23.192 25.78C23.612 24.64 24.15 23.86 24.992 23.018C25.83 22.18 26.612 21.64 27.75 21.222C28.59 20.89 29.852 20.5 32.192 20.38C34.742 20.29 35.492 20.26 41.91 20.26L42 20.32ZM42 27.676C35.19 27.676 29.676 33.196 29.676 40C29.676 46.81 35.196 52.324 42 52.324C48.81 52.324 54.324 46.804 54.324 40C54.324 33.19 48.804 27.676 42 27.676ZM42 48C37.58 48 34 44.42 34 40C34 35.58 37.58 32 42 32C46.42 32 50 35.58 50 40C50 44.42 46.42 48 42 48ZM57.692 27.19C57.692 28.78 56.4 30.07 54.812 30.07C53.222 30.07 51.932 28.778 51.932 27.19C51.932 25.602 53.224 24.312 54.812 24.312C56.398 24.31 57.692 25.602 57.692 27.19Z" fill="white"/>
<defs>
<filter id="filter0_d" x="0" y="0" width="431" height="89" filterUnits="userSpaceOnUse" color-interpolation-filters="sRGB">
<feFlood flood-opacity="0" result="BackgroundImageFix"/>
<feColorMatrix in="SourceAlpha" type="matrix" values="0 0 0 0 0 0 0 0 0 0 0 0 0 0 0 0 0 0 127 0"/>
<feOffset dx="5" dy="5"/>
<feGaussianBlur stdDeviation="2.5"/>
<feColorMatrix type="matrix" values="0 0 0 0 0 0 0 0 0 0 0 0 0 0 0 0 0 0 0.25 0"/>
<feBlend mode="normal" in2="BackgroundImageFix" result="effect1_dropShadow"/>
<feBlend mode="normal" in="SourceGraphic" in2="effect1_dropShadow" result="shape"/>
</filter>
<filter id="filter1_d" x="92.4922" y="25.4062" width="277.258" height="45.0625" filterUnits="userSpaceOnUse" color-interpolation-filters="sRGB">
<feFlood flood-opacity="0" result="BackgroundImageFix"/>
<feColorMatrix in="SourceAlpha" type="matrix" values="0 0 0 0 0 0 0 0 0 0 0 0 0 0 0 0 0 0 127 0"/>
<feOffset dx="5" dy="5"/>
<feGaussianBlur stdDeviation="2.5"/>
<feColorMatrix type="matrix" values="0 0 0 0 0 0 0 0 0 0 0 0 0 0 0 0 0 0 0.25 0"/>
<feBlend mode="normal" in2="BackgroundImageFix" result="effect1_dropShadow"/>
<feBlend mode="normal" in="SourceGraphic" in2="effect1_dropShadow" result="shape"/>
</filter>
<linearGradient id="paint0_linear" x1="0" y1="40" x2="421" y2="40" gradientUnits="userSpaceOnUse">
<stop/>
<stop offset="0.453125" stop-color="#2D3436"/>
</linearGradient>
</defs>
</svg>
