<svg width="75" height="75" viewBox="0 0 75 75" fill="none" xmlns="http://www.w3.org/2000/svg">
<g filter="url(#filter0_d)">
<circle cx="32.5" cy="32.5" r="32.5" fill="#2D3436"/>
<circle cx="32.5" cy="32.5" r="32.5" fill="url(#paint0_linear)"/>
</g>
<path d="M32 12C20.9597 12 12 20.9597 12 32C12 43.0403 20.9597 52 32 52C43.0403 52 52 43.0403 52 32C52 20.9597 43.0403 12 32 12ZM40.121 41.4274C39.7823 41.4274 39.5726 41.3226 39.2581 41.1371C34.2258 38.1048 28.371 37.9758 22.5887 39.1613C22.2742 39.2419 21.8629 39.371 21.629 39.371C20.8468 39.371 20.3548 38.75 20.3548 38.0968C20.3548 37.2661 20.8468 36.871 21.4516 36.7419C28.0565 35.2823 34.8065 35.4113 40.5645 38.8548C41.0565 39.1694 41.3468 39.4516 41.3468 40.1855C41.3468 40.9194 40.7742 41.4274 40.121 41.4274ZM42.2903 36.1371C41.871 36.1371 41.5887 35.9516 41.2984 35.7984C36.2581 32.8145 28.7419 31.6129 22.0565 33.4274C21.6694 33.5323 21.4597 33.6371 21.0968 33.6371C20.2339 33.6371 19.5323 32.9355 19.5323 32.0726C19.5323 31.2097 19.9516 30.6371 20.7823 30.4032C23.0242 29.7742 25.3145 29.3065 28.6694 29.3065C33.9032 29.3065 38.9597 30.6048 42.9435 32.9758C43.5968 33.3629 43.8548 33.8629 43.8548 34.5645C43.8468 35.4355 43.1694 36.1371 42.2903 36.1371ZM44.7903 29.9919C44.371 29.9919 44.1129 29.8871 43.75 29.6774C38.0081 26.25 27.7419 25.4274 21.0968 27.2823C20.8065 27.3629 20.4435 27.4919 20.0565 27.4919C18.9919 27.4919 18.1774 26.6613 18.1774 25.5887C18.1774 24.4919 18.8548 23.871 19.5806 23.6613C22.4194 22.8306 25.5968 22.4355 29.0565 22.4355C34.9435 22.4355 41.1129 23.6613 45.621 26.2903C46.25 26.6532 46.6613 27.1532 46.6613 28.1129C46.6613 29.2097 45.7742 29.9919 44.7903 29.9919Z" fill="white"/>
<defs>
<filter id="filter0_d" x="0" y="0" width="75" height="75" filterUnits="userSpaceOnUse" color-interpolation-filters="sRGB">
<feFlood flood-opacity="0" result="BackgroundImageFix"/>
<feColorMatrix in="SourceAlpha" type="matrix" values="0 0 0 0 0 0 0 0 0 0 0 0 0 0 0 0 0 0 127 0"/>
<feOffset dx="5" dy="5"/>
<feGaussianBlur stdDeviation="2.5"/>
<feColorMatrix type="matrix" values="0 0 0 0 0 0 0 0 0 0 0 0 0 0 0 0 0 0 0.25 0"/>
<feBlend mode="normal" in2="BackgroundImageFix" result="effect1_dropShadow"/>
<feBlend mode="normal" in="SourceGraphic" in2="effect1_dropShadow" result="shape"/>
</filter>
<linearGradient id="paint0_linear" x1="58" y1="11" x2="3" y2="51" gradientUnits="userSpaceOnUse">
<stop stop-color="#2D3436"/>
<stop offset="1" stop-color="#020303"/>
</linearGradient>
</defs>
</svg>
