<svg width="75" height="75" viewBox="0 0 75 75" fill="none" xmlns="http://www.w3.org/2000/svg">
<g filter="url(#filter0_d)">
<circle cx="32.5" cy="32.5" r="32.5" fill="#2D3436"/>
<circle cx="32.5" cy="32.5" r="32.5" fill="url(#paint0_linear)"/>
</g>
<path d="M53 32C53 43.0484 44.0323 52 32.9677 52C23.7903 52 16.0645 45.8468 13.6935 37.4516L21.371 40.621C21.8871 43.2097 24.1855 45.1694 26.9274 45.1694C30.0887 45.1694 32.7258 42.5564 32.5887 39.2419L39.4032 34.3871C43.6048 34.4919 47.129 31.0887 47.129 26.8468C47.129 22.6855 43.7419 19.3065 39.5726 19.3065C35.4032 19.3065 32.0161 22.6935 32.0161 26.8468V26.9435L27.2419 33.8548C25.9919 33.7823 24.7661 34.129 23.7339 34.8306L13 30.3952C13.8226 20.0968 22.4435 12 32.9677 12C44.0323 12 53 20.9516 53 32ZM25.5565 42.3468L23.0968 41.3306C23.5488 42.2692 24.3292 43.0095 25.2903 43.4113C27.4597 44.3145 29.9516 43.2823 30.8548 41.121C31.2903 40.0726 31.2984 38.9194 30.8629 37.871C30.4274 36.8226 29.6129 36 28.5645 35.5645C27.5242 35.129 26.4113 35.1452 25.4274 35.5161L27.9677 36.5645C29.5645 37.2258 30.3226 39.0564 29.6532 40.6532C28.9839 42.2581 27.1532 43.0081 25.5565 42.3468V42.3468ZM39.5726 31.871C36.7984 31.871 34.5403 29.6129 34.5403 26.8468C34.5403 24.0806 36.7984 21.8226 39.5726 21.8226C42.3468 21.8226 44.6048 24.0806 44.6048 26.8468C44.6048 29.6129 42.3548 31.871 39.5726 31.871V31.871ZM39.5806 30.6129C41.6694 30.6129 43.3629 28.9194 43.3629 26.8387C43.3629 24.75 41.6694 23.0645 39.5806 23.0645C37.4919 23.0645 35.7984 24.7581 35.7984 26.8387C35.8065 28.9194 37.5 30.6129 39.5806 30.6129Z" fill="white"/>
<defs>
<filter id="filter0_d" x="0" y="0" width="75" height="75" filterUnits="userSpaceOnUse" color-interpolation-filters="sRGB">
<feFlood flood-opacity="0" result="BackgroundImageFix"/>
<feColorMatrix in="SourceAlpha" type="matrix" values="0 0 0 0 0 0 0 0 0 0 0 0 0 0 0 0 0 0 127 0"/>
<feOffset dx="5" dy="5"/>
<feGaussianBlur stdDeviation="2.5"/>
<feColorMatrix type="matrix" values="0 0 0 0 0 0 0 0 0 0 0 0 0 0 0 0 0 0 0.25 0"/>
<feBlend mode="normal" in2="BackgroundImageFix" result="effect1_dropShadow"/>
<feBlend mode="normal" in="SourceGraphic" in2="effect1_dropShadow" result="shape"/>
</filter>
<linearGradient id="paint0_linear" x1="52.5" y1="5.5" x2="11" y2="58" gradientUnits="userSpaceOnUse">
<stop stop-color="#2D3436"/>
<stop offset="1" stop-color="#020202"/>
</linearGradient>
</defs>
</svg>
