<svg width="75" height="75" viewBox="0 0 75 75" fill="none" xmlns="http://www.w3.org/2000/svg">
<g filter="url(#filter0_d)">
<circle cx="32.5" cy="32.5" r="32.5" fill="#2D3436"/>
<circle cx="32.5" cy="32.5" r="32.5" fill="url(#paint0_linear)"/>
</g>
<g clip-path="url(#clip0)">
<path d="M53.9233 20.3029C52.4483 20.9676 50.8733 21.4204 49.215 21.6272C50.905 20.5831 52.205 18.9375 52.82 16.9741C51.235 17.9225 49.4783 18.6129 47.6083 18.9973C46.115 17.3586 43.9867 16.3333 41.6233 16.3333C37.095 16.3333 33.4233 20.0978 33.4233 24.7355C33.4233 25.4019 33.4983 26.0427 33.635 26.6561C26.8183 26.3263 20.7767 22.9703 16.7333 17.8969C16.0217 19.1306 15.6233 20.5643 15.6233 22.1261C15.6233 25.0482 17.0733 27.6165 19.27 29.1253C17.925 29.0809 16.66 28.7016 15.5567 28.0727V28.177C15.5567 32.2523 18.3783 35.6512 22.1333 36.4253C21.445 36.615 20.7183 36.7175 19.9733 36.7175C19.45 36.7175 18.9483 36.6662 18.4467 36.5705C19.4983 39.9078 22.5217 42.3412 26.12 42.4095C23.32 44.6633 19.7717 46.0065 15.95 46.0065C15.3 46.0065 14.6517 45.9672 14 45.892C17.6483 48.274 21.9467 49.6667 26.595 49.6667C41.685 49.6667 49.9267 36.8577 49.9267 25.7676C49.9267 25.4104 49.9267 25.0499 49.9017 24.691C51.5033 23.5137 52.9017 22.0253 54.0017 20.337L53.9233 20.3029Z" fill="white"/>
</g>
<defs>
<filter id="filter0_d" x="0" y="0" width="75" height="75" filterUnits="userSpaceOnUse" color-interpolation-filters="sRGB">
<feFlood flood-opacity="0" result="BackgroundImageFix"/>
<feColorMatrix in="SourceAlpha" type="matrix" values="0 0 0 0 0 0 0 0 0 0 0 0 0 0 0 0 0 0 127 0"/>
<feOffset dx="5" dy="5"/>
<feGaussianBlur stdDeviation="2.5"/>
<feColorMatrix type="matrix" values="0 0 0 0 0 0 0 0 0 0 0 0 0 0 0 0 0 0 0.25 0"/>
<feBlend mode="normal" in2="BackgroundImageFix" result="effect1_dropShadow"/>
<feBlend mode="normal" in="SourceGraphic" in2="effect1_dropShadow" result="shape"/>
</filter>
<linearGradient id="paint0_linear" x1="60.5" y1="14" x2="5.5" y2="55" gradientUnits="userSpaceOnUse">
<stop stop-color="#2D3436"/>
<stop offset="0.822917" stop-color="#040505"/>
</linearGradient>
<clipPath id="clip0">
<rect width="40" height="40" fill="white" transform="translate(14 13)"/>
</clipPath>
</defs>
</svg>
